# xmcd
#
# Track frame offsets: 
#        150
#        18306
#        42745
#        61277
#        82292
#        103823
#        120634
#        138237
#        157428
#        179306
#        195490
#        215922
#
# Disc length: 3122 seconds
#
# Revision: 3
# Processed by: cddbd v1.5.2PL0 Copyright (c) Steve Scherf et al.
# Submitted via: ExactAudioCopy v0.95b2
#
DISCID=b90c300c
DTITLE=Destiny's Child - Destiny Fulfilled
DYEAR=2004
DGENRE=R&B
TTITLE0=Lose My Breath
TTITLE1=Soldier (feat. T.I. and Lil Wayne)
TTITLE2=Cater 2 U
TTITLE3=T-Shirt
TTITLE4=Is She The Reason
TTITLE5=Girl
TTITLE6=Bad Habit
TTITLE7=If
TTITLE8=Free
TTITLE9=Through With Love
TTITLE10=Love
TTITLE11=Game Over (Bonus Track)
EXTD=
EXTT0=
EXTT1=
EXTT2=
EXTT3=
EXTT4=
EXTT5=
EXTT6=
EXTT7=
EXTT8=
EXTT9=
EXTT10=
EXTT11=
PLAYORDER=
